<svg version="1.0" xmlns="http://www.w3.org/2000/svg"  viewBox="0 0 253.000000 209.993784"  ><g transform="translate(-64.500000,240.996892) scale(0.100000,-0.100000)" fill="#000000" stroke="none"><path fill="currentColor" d="M721 2392 c-19 -9 -44 -30 -55 -45 -21 -28 -21 -33 -21 -987 0 -954 0 -959 21 -987 11 -15 36 -36 55 -45 32 -17 109 -18 1189 -18 1080 0 1157 1 1189 18 19 9 44 30 55 45 21 28 21 33 21 987 0 954 0 959 -21 987 -11 15 -36 36 -55 45 -32 17 -109 18 -1189 18 -1080 0 -1157 -1 -1189 -18z m2359 -82 c18 -18 20 -33 20 -155 l0 -135 -1190 0 -1190 0 0 135 c0 122 2 137 20 155 20 20 33 20 1170 20 1137 0 1150 0 1170 -20z m20 -1125 c0 -742 0 -755 -20 -775 -20 -20 -33 -20 -1170 -20 -1137 0 -1150 0 -1170 20 -20 20 -20 33 -20 775 l0 755 1190 0 1190 0 0 -755z"/><path fill="currentColor" d="M946 2208 c-21 -29 -20 -51 2 -71 35 -32 102 -10 102 34 0 29 -31 59 -60 59 -18 0 -34 -8 -44 -22z"/><path fill="currentColor" d="M1177 2212 c-10 -10 -17 -28 -17 -40 0 -55 81 -71 109 -21 13 24 13 29 -2 53 -21 31 -66 35 -90 8z"/><path fill="currentColor" d="M1407 2212 c-36 -39 -13 -94 38 -94 34 0 55 19 55 53 0 53 -59 79 -93 41z"/><path fill="currentColor" d="M1167 1289 c-103 -143 -187 -268 -187 -278 0 -37 19 -41 192 -41 l167 0 3 -92 c3 -88 4 -93 26 -96 42 -6 52 13 52 104 l0 84 49 0 c54 0 74 15 69 52 -3 21 -9 23 -60 26 l-58 3 0 237 c0 172 -3 241 -12 250 -34 34 -51 17 -241 -249z m170 -236 c-3 -2 -57 -2 -122 -1 l-117 3 119 165 118 165 3 -164 c1 -90 1 -166 -1 -168z"/><path fill="currentColor" d="M1802 1524 c-59 -29 -94 -70 -117 -133 -18 -52 -21 -382 -5 -443 15 -54 68 -118 120 -145 38 -20 57 -23 122 -21 66 3 82 7 119 33 24 17 57 53 74 79 l30 49 3 196 c3 132 0 209 -9 238 -40 145 -201 215 -337 147z m188 -76 c73 -50 75 -56 75 -283 0 -191 -1 -205 -21 -232 -73 -98 -195 -98 -268 0 -20 27 -21 41 -21 232 0 191 1 205 21 232 35 48 82 73 134 73 32 0 57 -7 80 -22z"/><path fill="currentColor" d="M2467 1290 c-103 -143 -187 -268 -187 -278 0 -38 18 -42 192 -42 l167 0 3 -92 c3 -88 4 -93 26 -96 42 -6 52 13 52 104 l0 84 49 0 c56 0 76 17 67 55 -6 23 -11 25 -61 25 l-55 0 0 231 c0 140 -4 238 -10 250 -6 10 -21 19 -34 19 -18 0 -58 -50 -209 -260z m169 -227 c-4 -10 -36 -13 -121 -13 -63 0 -115 2 -115 5 0 2 53 78 118 167 l117 163 3 -155 c1 -85 0 -160 -2 -167z"/></g></svg>