<svg version="1.0" xmlns="http://www.w3.org/2000/svg"  viewBox="0 0 248.457517 375.736087"  ><g transform="translate(-55.500000,394.808054) scale(0.100000,-0.100000)" fill="#000000" stroke="none"><path fill="currentColor" d="M825 3932 c-116 -40 -194 -108 -244 -212 l-26 -55 0 -1440 0 -1440 33 -64 c80 -153 209 -221 417 -221 l83 0 4 -97 c5 -110 19 -148 70 -185 31 -21 44 -23 195 -26 146 -3 165 -1 201 17 66 34 82 71 82 190 l0 101 160 0 160 0 0 -101 c0 -119 16 -156 82 -190 36 -18 55 -20 201 -17 151 3 164 5 195 26 51 37 65 75 70 184 l4 98 78 0 c203 0 333 70 412 221 l33 64 3 967 c2 960 2 968 -18 988 -21 21 -69 26 -100 10 -40 -21 -40 -41 -40 -996 1 -898 1 -924 -19 -961 -25 -50 -65 -87 -121 -112 -44 -20 -61 -21 -945 -21 -884 0 -901 1 -945 21 -55 25 -96 62 -121 112 -19 37 -20 69 -20 1431 -1 1376 -1 1393 19 1432 26 50 77 99 124 118 21 9 40 16 42 16 3 0 7 -498 8 -1107 l3 -1108 27 -58 c50 -107 176 -205 286 -223 34 -5 45 -13 72 -55 19 -30 50 -60 78 -76 l47 -28 385 0 385 0 47 28 c28 16 59 46 78 76 27 42 38 50 73 55 110 18 218 107 276 226 l26 55 3 1108 c1 609 5 1107 8 1107 19 0 85 -36 112 -63 62 -59 69 -84 74 -275 5 -160 7 -175 26 -195 31 -30 88 -29 114 3 18 22 19 38 16 215 -3 181 -4 193 -29 245 -41 85 -99 144 -187 187 l-76 38 -935 2 c-868 2 -940 1 -986 -15z m1715 -1224 c0 -1027 -1 -1085 -19 -1123 -32 -71 -114 -136 -168 -134 -10 0 -31 21 -48 47 -21 32 -46 55 -84 74 l-53 28 -368 0 -368 0 -53 -28 c-39 -20 -63 -41 -84 -75 -28 -44 -32 -47 -65 -42 -51 7 -111 55 -142 115 l-28 52 0 1084 0 1084 740 0 740 0 0 -1082z m-371 -1294 c12 -15 21 -37 21 -49 0 -12 -9 -34 -21 -49 l-20 -26 -349 0 -349 0 -20 26 c-12 15 -21 37 -21 49 0 12 9 34 21 49 l20 26 349 0 349 0 20 -26z m-679 -989 l0 -75 -120 0 -120 0 0 75 0 75 120 0 120 0 0 -75z m860 0 l0 -75 -120 0 -120 0 0 75 0 75 120 0 120 0 0 -75z"/><path fill="currentColor" d="M1455 3629 c-44 -25 -45 -33 -45 -269 0 -224 0 -227 23 -248 45 -42 117 -20 132 41 4 13 5 116 3 230 -3 191 -4 208 -23 226 -26 25 -65 34 -90 20z"/><path fill="currentColor" d="M1749 3611 l-29 -29 0 -222 0 -221 25 -24 c15 -16 36 -25 55 -25 19 0 40 9 55 25 l25 24 0 221 0 222 -29 29 c-16 16 -39 29 -51 29 -12 0 -35 -13 -51 -29z"/><path fill="currentColor" d="M2080 3627 c-45 -23 -50 -47 -50 -265 0 -248 8 -272 89 -272 16 0 37 10 49 23 21 22 22 31 22 244 0 122 -3 229 -6 238 -6 15 -54 45 -71 45 -4 0 -19 -6 -33 -13z"/><path fill="currentColor" d="M1700 2686 c-296 -66 -453 -389 -324 -663 31 -65 121 -164 181 -200 144 -84 342 -84 486 0 60 36 150 135 181 200 32 69 45 127 46 202 1 221 -156 414 -375 461 -73 16 -122 16 -195 0z m226 -175 c59 -26 122 -87 156 -151 19 -37 23 -60 23 -135 0 -81 -3 -95 -29 -143 -122 -220 -430 -220 -552 0 -26 48 -29 62 -29 145 0 51 5 97 10 102 8 8 50 -18 139 -84 141 -105 168 -114 211 -70 30 29 32 64 6 96 -11 13 -71 62 -135 109 -63 47 -115 87 -116 90 0 9 61 42 104 56 55 19 150 12 212 -15z"/><path fill="currentColor" d="M2916 3059 c-53 -42 -21 -139 46 -139 70 0 104 85 53 135 -30 30 -64 32 -99 4z"/><path fill="currentColor" d="M1545 969 c-16 -5 -36 -16 -42 -26 -20 -26 -16 -80 7 -103 19 -19 33 -20 290 -20 257 0 271 1 290 20 22 22 26 69 10 100 -6 11 -27 24 -48 30 -45 12 -465 12 -507 -1z"/></g></svg>